Coordinates
version=1
nRows=54
nColumns=12
inDegrees=yes

Units are S.I. units (second, meters, Newtons, ...)
Angles are in degrees

endheader
time	SC_y	SC_z	SC_x	AC_y	AC_z	AC_x	GH_y	GH_z	GH_yy	EL_x	PS_y
       0.0              -23.93          11.47          12.08          39.77         -12.45          10.55          110.6         -9.296         -119.9          65.39          150.4
   0.02864              -23.94          11.48          12.08          39.77         -12.45          10.54          110.6         -9.282         -119.9           65.4          150.4
   0.05728              -23.94          11.48          12.09          39.78         -12.44          10.54          110.6         -9.268         -119.8          65.41          150.4
   0.08593              -23.94          11.48           12.1          39.78         -12.44          10.54          110.5         -9.253         -119.8          65.42          150.4
    0.1146              -23.94          11.49           12.1          39.79         -12.44          10.54          110.5         -9.237         -119.8          65.43          150.4
    0.1432              -23.94          11.49          12.11          39.79         -12.44          10.53          110.5          -9.22         -119.7          65.44          150.4
    0.1719              -23.94           11.5          12.12          39.79         -12.44          10.53          110.4         -9.202         -119.7          65.46          150.4
    0.2005              -23.94           11.5          12.12           39.8         -12.44          10.53          110.4         -9.182         -119.6          65.47          150.4
    0.2291              -23.95          11.51          12.13           39.8         -12.44          10.52          110.3         -9.161         -119.6          65.48          150.4
    0.2578              -23.95          11.52          12.14          39.81         -12.44          10.52          110.3         -9.139         -119.5           65.5          150.4
    0.2864              -23.95          11.52          12.15          39.82         -12.44          10.51          110.2         -9.115         -119.5          65.52          150.4
    0.3151              -23.95          11.53          12.16          39.82         -12.44          10.51          110.2         -9.089         -119.4          65.53          150.4
    0.3437              -23.95          11.54          12.17          39.83         -12.44           10.5          110.1         -9.061         -119.3          65.55          150.4
    0.3723              -23.96          11.55          12.19          39.84         -12.44           10.5          110.1         -9.031         -119.3          65.57          150.4
     0.401              -23.96          11.56           12.2          39.84         -12.44          10.49          110.0         -8.998         -119.2           65.6          150.4
    0.4296              -23.96          11.57          12.21          39.85         -12.44          10.49          109.9         -8.963         -119.1          65.62          150.4
    0.4583              -23.97          11.58          12.23          39.86         -12.44          10.48          109.8         -8.924         -119.0          65.65          150.4
    0.4869              -23.97          11.59          12.25          39.87         -12.44          10.47          109.8         -8.882         -118.9          65.68          150.4
    0.5156              -23.97           11.6          12.26          39.88         -12.44          10.46          109.7         -8.837         -118.8          65.71          150.4
    0.5442              -23.98          11.61          12.28           39.9         -12.44          10.46          109.6         -8.786         -118.7          65.74          150.4
    0.5728              -23.98          11.63          12.31          39.91         -12.44          10.45          109.5         -8.731         -118.6          65.78          150.4
    0.6015              -23.99          11.65          12.33          39.93         -12.44          10.44          109.3         -8.671         -118.4          65.82          150.4
    0.6301              -23.99          11.66          12.36          39.94         -12.44          10.42          109.2         -8.604         -118.2          65.87          150.4
    0.6588               -24.0          11.68          12.39          39.96         -12.44          10.41          109.0          -8.53         -118.1          65.92          150.4
    0.6874              -24.01          11.71          12.42          39.98         -12.43           10.4          108.9         -8.447         -117.9          65.98          150.4
     0.716              -24.02          11.73          12.46           40.0         -12.43          10.38          108.7         -8.355         -117.7          66.04          150.4
    0.7447              -24.02          11.76           12.5          40.03         -12.43          10.36          108.5         -8.252         -117.4          66.11          150.5
    0.7733              -24.03          11.79          12.55          40.06         -12.43          10.34          108.2         -8.136         -117.1          66.19          150.5
     0.802              -24.05          11.83           12.6          40.09         -12.43          10.32          107.9         -8.005         -116.8          66.28          150.5
    0.8306              -24.06          11.87          12.66          40.13         -12.43          10.29          107.6         -7.857         -116.5          66.39          150.5
    0.8593              -24.07          11.92          12.73          40.17         -12.42          10.26          107.3         -7.687         -116.1          66.51          150.5
    0.8879              -24.09          11.97          12.81          40.22         -12.42          10.23          106.9         -7.492         -115.6          66.64          150.5
    0.9165              -24.11          12.03           12.9          40.27         -12.42          10.19          106.4         -7.267         -115.1           66.8          150.5
    0.9452              -24.13           12.1          13.01          40.34         -12.42          10.14          105.9         -7.006         -114.4          66.98          150.5
    0.9738              -24.16          12.19          13.13          40.42         -12.41          10.09          105.3           -6.7         -113.7          67.19          150.6
     1.002              -24.19          12.29          13.28          40.51         -12.41          10.03          104.5          -6.34         -112.8          67.44          150.6
     1.031              -24.23          12.41          13.45          40.61          -12.4          9.951          103.6         -5.911         -111.8          67.74          150.6
      1.06              -24.27          12.55          13.66          40.74         -12.39          9.861          102.6         -5.398         -110.6          68.09          150.7
     1.088              -24.33          12.72          13.91          40.89         -12.39          9.752          101.3         -4.777         -109.1          68.52          150.7
     1.117              -24.39          12.93          14.22          41.08         -12.38          9.619           99.7         -4.018         -107.3          69.05          150.8
     1.146              -24.47          13.19           14.6          41.31         -12.36          9.454          97.77         -3.082         -105.1           69.7          150.8
     1.174              -24.58          13.51          15.08           41.6         -12.35          9.249          95.35         -1.914         -102.3          70.51          150.9
     1.203               -24.7          13.92          15.68          41.97         -12.33          8.991          92.31        -0.4426         -98.76          71.53          151.0
     1.232              -24.87          14.43          16.44          42.43          -12.3          8.663          88.44          1.428         -94.29          72.82          151.1
      1.26              -25.07          15.09          17.41          43.03         -12.27          8.242          83.49          3.821         -88.58          74.48          151.3
     1.289              -25.34          15.94          18.66          43.79         -12.23          7.703          77.14          6.893         -81.24          76.61          151.5
     1.318              -25.68          17.02          20.25          44.77         -12.18          7.014          69.02          10.82         -71.87          79.33          151.8
     1.346              -26.11          18.38          22.26          45.99         -12.12          6.148          58.82          15.75         -60.09          82.75          152.2
     1.375              -26.63          20.04           24.7          47.49         -12.04          5.092          46.38          21.76         -45.74          86.91          152.6
     1.403              -27.24          21.96          27.54          49.22         -11.95          3.869          31.97          28.73         -29.09          91.74          153.1
     1.432              -27.89          24.04           30.6          51.09         -11.85          2.544          16.36          36.28         -11.07          96.97          153.6
     1.461              -28.55          26.13          33.67          52.97         -11.75          1.219         0.7579          43.82          6.945          102.2          154.2
     1.489              -29.16          28.05           36.5           54.7         -11.66      -0.004443         -13.66          50.79          23.59          107.0          154.7
     1.518              -29.68          29.71          38.95          56.19         -11.58          -1.06         -26.09          56.81          37.94          111.2          155.1
